HIERARCHY
ROOT reference
{
  OFFSET 0 0 0
  CHANNELS 6 Xposition Yposition Zposition Zrotation Xrotation Yrotation
  JOINT Hips
  {
    OFFSET 339.145 90.8604 236.464
    CHANNELS 3 Zrotation Xrotation Yrotation
    JOINT RightUpLeg
    {
      OFFSET -9.24113 -1.522 -0.0337757
      CHANNELS 3 Zrotation Xrotation Yrotation
      JOINT RightLeg
      {
        OFFSET 0.0344394 -41.8985 0.100154
        CHANNELS 3 Zrotation Xrotation Yrotation
        JOINT RightFoot
        {
          OFFSET -0.415571 -42.0751 0.023027
          CHANNELS 3 Zrotation Xrotation Yrotation
          End Site
          {
            OFFSET 0 -7.69 17.5
          }
        }
      }
    }
    JOINT LeftUpLeg
    {
      OFFSET 9.30897 -1.67379 -0.0291548
      CHANNELS 3 Zrotation Xrotation Yrotation
      JOINT LeftLeg
      {
        OFFSET 0.0832755 -41.864 -0.14338
        CHANNELS 3 Zrotation Xrotation Yrotation
        JOINT LeftFoot
        {
          OFFSET 0.17151 -41.5225 0.735469
          CHANNELS 3 Zrotation Xrotation Yrotation
          End Site
          {
            OFFSET 0 -7.69 17.5
          }
        }
      }
    }
    JOINT Spine
    {
      OFFSET 0.00853273 14.2903 0.0777264
      CHANNELS 3 Zrotation Xrotation Yrotation
      JOINT Spine1
      {
        OFFSET 0.0173944 9.71323 0.029081
        CHANNELS 3 Zrotation Xrotation Yrotation
        JOINT Spine2
        {
          OFFSET 0.0412483 10.1247 -0.0145163
          CHANNELS 3 Zrotation Xrotation Yrotation
          JOINT Spine3
          {
            OFFSET 0.0279063 9.71793 0.00755232
            CHANNELS 3 Zrotation Xrotation Yrotation
            JOINT Neck
            {
              OFFSET 0.0852486 10.3712 0.0268485
              CHANNELS 3 Zrotation Xrotation Yrotation
              JOINT Head
              {
                OFFSET 0.0739267 9.48251 0.0332551
                CHANNELS 3 Zrotation Xrotation Yrotation
                End Site
                {
                  OFFSET 0 15.95 0
                }
              }
            }
            JOINT RightShoulder
            {
              OFFSET -3.14957 6.95772 0.0300988
              CHANNELS 3 Zrotation Xrotation Yrotation
              JOINT RightArm
              {
                OFFSET -12.7513 0.0411148 0.0791701
                CHANNELS 3 Zrotation Xrotation Yrotation
                JOINT RightForeArm
                {
                  OFFSET -26.4959 0.0361336 0.259434
                  CHANNELS 3 Zrotation Xrotation Yrotation
                  JOINT RightHand
                  {
                    OFFSET -25.9829 -0.0837334 0.191464
                    CHANNELS 3 Zrotation Xrotation Yrotation
                    JOINT RightHandThumb1
                    {
                      OFFSET -2.48905 0.190105 3.12053
                      CHANNELS 3 Zrotation Xrotation Yrotation
                      JOINT RightHandThumb2
                      {
                        OFFSET -3.68274 0 0
                        CHANNELS 3 Zrotation Xrotation Yrotation
                        JOINT RightHandThumb3
                        {
                          OFFSET -2.55832 0 0
                          CHANNELS 3 Zrotation Xrotation Yrotation
                          End Site
                          {
                            OFFSET -2.194 0 0
                          }
                        }
                      }
                    }
                    JOINT RightInHandIndex
                    {
                      OFFSET -3.22368 0.508421 1.97842
                      CHANNELS 3 Zrotation Xrotation Yrotation
                      JOINT RightHandIndex1
                      {
                        OFFSET -5.21684 -0.091368 0.999158
                        CHANNELS 3 Zrotation Xrotation Yrotation
                        JOINT RightHandIndex2
                        {
                          OFFSET -3.61937 0 0
                          CHANNELS 3 Zrotation Xrotation Yrotation
                          JOINT RightHandIndex3
                          {
                            OFFSET -2.0521 0 0
                            CHANNELS 3 Zrotation Xrotation Yrotation
                            End Site
                            {
                              OFFSET -1.805 0 0
                            }
                          }
                        }
                      }
                    }
                    JOINT RightInHandMiddle
                    {
                      OFFSET -3.38211 0.517263 0.756737
                      CHANNELS 3 Zrotation Xrotation Yrotation
                      JOINT RightHandMiddle1
                      {
                        OFFSET -5.17411 -0.084 0.313895
                        CHANNELS 3 Zrotation Xrotation Yrotation
                        JOINT RightHandMiddle2
                        {
                          OFFSET -3.94947 0 0
                          CHANNELS 3 Zrotation Xrotation Yrotation
                          JOINT RightHandMiddle3
                          {
                            OFFSET -2.47579 0 0
                            CHANNELS 3 Zrotation Xrotation Yrotation
                            End Site
                            {
                              OFFSET -1.975 0 0
                            }
                          }
                        }
                      }
                    }
                    JOINT RightInHandRing
                    {
                      OFFSET -3.36516 0.537895 -0.128947
                      CHANNELS 3 Zrotation Xrotation Yrotation
                      JOINT RightHandRing1
                      {
                        OFFSET -4.63474 -0.022105 -0.478947
                        CHANNELS 3 Zrotation Xrotation Yrotation
                        JOINT RightHandRing2
                        {
                          OFFSET -3.44238 0 0
                          CHANNELS 3 Zrotation Xrotation Yrotation
                          JOINT RightHandRing3
                          {
                            OFFSET -2.3881 0 0
                            CHANNELS 3 Zrotation Xrotation Yrotation
                            End Site
                            {
                              OFFSET -1.857 0 0
                            }
                          }
                        }
                      }
                    }
                    JOINT RightInHandPinky
                    {
                      OFFSET -3.16105 0.469368 -1.20179
                      CHANNELS 3 Zrotation Xrotation Yrotation
                      JOINT RightHandPinky1
                      {
                        OFFSET -4.14105 -0.022105 -1.09053
                        CHANNELS 3 Zrotation Xrotation Yrotation
                        JOINT RightHandPinky2
                        {
                          OFFSET -2.75653 0 0
                          CHANNELS 3 Zrotation Xrotation Yrotation
                          JOINT RightHandPinky3
                          {
                            OFFSET -1.74189 0 0
                            CHANNELS 3 Zrotation Xrotation Yrotation
                            End Site
                            {
                              OFFSET -1.645 0 0
                            }
                          }
                        }
                      }
                    }
                  }
                }
              }
            }
            JOINT LeftShoulder
            {
              OFFSET 3.25273 6.91522 -0.0295735
              CHANNELS 3 Zrotation Xrotation Yrotation
              JOINT LeftArm
              {
                OFFSET 12.7785 0.0134102 -0.0213482
                CHANNELS 3 Zrotation Xrotation Yrotation
                JOINT LeftForeArm
                {
                  OFFSET 26.5044 -0.0446277 0.0404034
                  CHANNELS 3 Zrotation Xrotation Yrotation
                  JOINT LeftHand
                  {
                    OFFSET 25.9955 -0.0467726 -0.0166804
                    CHANNELS 3 Zrotation Xrotation Yrotation
                    JOINT LeftHandThumb1
                    {
                      OFFSET 2.48905 0.190105 3.12053
                      CHANNELS 3 Zrotation Xrotation Yrotation
                      JOINT LeftHandThumb2
                      {
                        OFFSET 3.68274 0 0
                        CHANNELS 3 Zrotation Xrotation Yrotation
                        JOINT LeftHandThumb3
                        {
                          OFFSET 2.55832 0 0
                          CHANNELS 3 Zrotation Xrotation Yrotation
                          End Site
                          {
                            OFFSET 2.194 0 0
                          }
                        }
                      }
                    }
                    JOINT LeftInHandIndex
                    {
                      OFFSET 3.22368 0.508421 1.97842
                      CHANNELS 3 Zrotation Xrotation Yrotation
                      JOINT LeftHandIndex1
                      {
                        OFFSET 5.21684 -0.091368 0.999158
                        CHANNELS 3 Zrotation Xrotation Yrotation
                        JOINT LeftHandIndex2
                        {
                          OFFSET 3.61937 0 0
                          CHANNELS 3 Zrotation Xrotation Yrotation
                          JOINT LeftHandIndex3
                          {
                            OFFSET 2.0521 0 0
                            CHANNELS 3 Zrotation Xrotation Yrotation
                            End Site
                            {
                              OFFSET 1.805 0 0
                            }
                          }
                        }
                      }
                    }
                    JOINT LeftInHandMiddle
                    {
                      OFFSET 3.38211 0.517263 0.756737
                      CHANNELS 3 Zrotation Xrotation Yrotation
                      JOINT LeftHandMiddle1
                      {
                        OFFSET 5.17411 -0.084 0.313895
                        CHANNELS 3 Zrotation Xrotation Yrotation
                        JOINT LeftHandMiddle2
                        {
                          OFFSET 3.94947 0 0
                          CHANNELS 3 Zrotation Xrotation Yrotation
                          JOINT LeftHandMiddle3
                          {
                            OFFSET 2.47579 0 0
                            CHANNELS 3 Zrotation Xrotation Yrotation
                            End Site
                            {
                              OFFSET 1.975 0 0
                            }
                          }
                        }
                      }
                    }
                    JOINT LeftInHandRing
                    {
                      OFFSET 3.36516 0.537895 -0.128947
                      CHANNELS 3 Zrotation Xrotation Yrotation
                      JOINT LeftHandRing1
                      {
                        OFFSET 4.63474 -0.022105 -0.478947
                        CHANNELS 3 Zrotation Xrotation Yrotation
                        JOINT LeftHandRing2
                        {
                          OFFSET 3.44238 0 0
                          CHANNELS 3 Zrotation Xrotation Yrotation
                          JOINT LeftHandRing3
                          {
                            OFFSET 2.3881 0 0
                            CHANNELS 3 Zrotation Xrotation Yrotation
                            End Site
                            {
                              OFFSET 1.857 0 0
                            }
                          }
                        }
                      }
                    }
                    JOINT LeftInHandPinky
                    {
                      OFFSET 3.16105 0.469368 -1.20179
                      CHANNELS 3 Zrotation Xrotation Yrotation
                      JOINT LeftHandPinky1
                      {
                        OFFSET 4.14105 -0.022105 -1.09053
                        CHANNELS 3 Zrotation Xrotation Yrotation
                        JOINT LeftHandPinky2
                        {
                          OFFSET 2.75653 0 0
                          CHANNELS 3 Zrotation Xrotation Yrotation
                          JOINT LeftHandPinky3
                          {
                            OFFSET 1.74189 0 0
                            CHANNELS 3 Zrotation Xrotation Yrotation
                            End Site
                            {
                              OFFSET 1.645 0 0
                            }
                          }
                        }
                      }
                    }
                  }
                }
              }
            }
          }
        }
      }
    }
  }
}
MOTION
Frames:	4
Frame Time:	0.00833333
0 0 0 0 0 -0 26.8898 14.1379 -69.5453 -7.13622 -49.8655 -6.43343 -1.64556 21.9359 -13.245 8.43003 -0.00158934 23.4228 16.0514 -41.8486 6.94843 3.71337 26.5789 -6.84375 -11.349 -13.3633 -15.9216 -8.73759 13.0933 15.187 -1.86078 3.5028 3.55038 -3.10049 5.64767 5.76343 -0.310336 -0.383989 -0.455536 -0.310681 -0.391616 -0.453431 -6.13095 -7.34321 -7.94642 1.30803 -10.8557 24.4674 72.3641 -0.484028 50.6388 24.1628 -49.9526 13.5545 18.7741 -20.8192 -15.0843 28.184 10.7294 19.1592 -8.07405e-15 0 -10 -4.98463e-15 -7.95139e-16 -10 -9.54166e-15 -6.36111e-15 1.59028e-15 19.9818 0.871897 2.3964 24 -2.38542e-15 -2.54444e-14 20 -1.59028e-15 -1.27222e-14 -9.54166e-15 -6.36111e-15 1.59028e-15 20 4.77083e-15 -9.54166e-15 24 1.19271e-15 -1.90833e-14 20 -1.59028e-15 -1.90833e-14 -9.54166e-15 -6.36111e-15 1.59028e-15 19.9748 -1.02565 -2.81938 24 -1.27222e-14 -3.49861e-14 20 3.18055e-15 -2.22639e-14 -9.54166e-15 -6.36111e-15 1.59028e-15 19.7815 -3.00948 -8.30515 24 -3.97569e-15 -2.8625e-14 20 -1.35174e-14 -6.36111e-15 15.7158 -13.4939 -29.4862 -37.6623 33.226 -67.0489 10.9539 -55.8737 10.8439 -21.7631 -23.6036 6.29071 -28.184 10.7294 -19.1592 1.23577e-14 3.18055e-15 10 -2.5837e-14 0 10 1.27222e-14 6.36111e-15 -1.59028e-15 -19.9818 0.871897 -2.3964 -24 1.27222e-14 -0 -20 -1.49089e-15 -1.59028e-14 1.27222e-14 6.36111e-15 -1.59028e-15 -20 3.18055e-15 6.36111e-15 -24 4.77083e-15 -3.18055e-15 -20 1.78906e-15 -0 1.27222e-14 6.36111e-15 -1.59028e-15 -19.9748 -1.02565 2.81938 -24 0 9.54166e-15 -20 7.95139e-15 -1.59028e-14 1.27222e-14 6.36111e-15 -1.59028e-15 -19.7815 -3.00948 8.30515 -24 -6.36111e-15 -9.54166e-15 -20 -3.57812e-15 -3.18055e-15 
0 0 0 0 0 -0 26.9259 14.0248 -69.7951 -6.94234 -49.8765 -6.23232 -1.72989 21.7475 -13.0704 8.37636 0.171346 23.4292 16.1533 -41.827 6.98919 3.54868 26.7543 -6.69235 -11.2818 -13.4891 -15.7762 -8.73241 13.0604 15.1423 -1.85946 3.49278 3.53895 -3.09702 5.63146 5.7449 -0.318361 -0.383989 -0.445576 -0.318712 -0.391616 -0.443438 -6.26342 -7.31735 -7.7697 1.33974 -10.6189 24.3748 72.5694 -0.713873 50.4361 25.5157 -49.8402 15.1099 18.8701 -20.9905 -14.7607 28.184 10.7294 19.1592 -2.18012e-14 4.57205e-15 -10 -1.71295e-14 -5.56597e-15 -10 -1.59028e-14 -3.18055e-15 3.18055e-15 19.9818 0.871897 2.3964 24 -1.13307e-14 -3.81667e-14 20 -3.97569e-15 -4.77083e-14 -1.59028e-14 -3.18055e-15 3.18055e-15 20 7.95139e-15 -2.22639e-14 24 -1.19271e-15 -4.13472e-14 20 -5.56597e-15 -3.18055e-14 -1.59028e-14 -3.18055e-15 3.18055e-15 19.9748 -1.02565 -2.81938 24 -8.74653e-15 -4.45278e-14 20 -3.18055e-15 -4.45278e-14 -1.59028e-14 -3.18055e-15 3.18055e-15 19.7815 -3.00948 -8.30515 24 -9.14409e-15 -3.81667e-14 20 -3.18055e-15 -3.49861e-14 15.6779 -13.4107 -29.5871 -37.5261 33.1865 -67.0514 10.8894 -54.8393 10.7341 -21.574 -23.668 6.35014 -28.184 10.7294 -19.1592 5.89842e-15 3.18055e-15 10 -2.85058e-14 -3.18055e-15 10 9.54166e-15 9.54166e-15 -0 -19.9818 0.871897 -2.3964 -24 1.59028e-15 1.59028e-14 -20 -4.42296e-15 -0 9.54166e-15 9.54166e-15 -0 -20 6.36111e-15 6.36111e-15 -24 -4.77083e-15 9.54166e-15 -20 -2.48481e-15 9.54166e-15 9.54166e-15 9.54166e-15 -0 -19.9748 -1.02565 2.81938 -24 -1.59028e-15 2.8625e-14 -20 1.78906e-15 -3.18055e-15 9.54166e-15 9.54166e-15 -0 -19.7815 -3.00948 8.30515 -24 -4.77083e-15 6.36111e-15 -20 0 6.36111e-15 
0 0 0 0 0 -0 26.959 13.9003 -70.0533 -6.73931 -49.8871 -6.03192 -1.825 21.5552 -12.905 8.31679 0.358756 23.4657 16.2267 -41.791 7.00507 3.39325 26.9221 -6.5208 -11.2156 -13.6156 -15.6295 -8.72393 13.0348 15.0857 -1.85927 3.48401 3.52432 -3.09324 5.61702 5.7213 -0.327265 -0.38399 -0.434062 -0.327633 -0.391617 -0.431892 -6.41059 -7.29582 -7.56541 1.2494 -10.4803 24.5014 72.9866 -1.21644 50.0952 28.1524 -51.8119 18.4204 18.272 -19.1886 -15.9572 28.184 10.7294 19.1592 -2.20816e-14 2.98177e-15 -10 -9.54866e-15 7.95139e-16 -10 -3.18055e-15 -1.59028e-15 3.18055e-15 19.9818 0.871897 2.3964 24 -5.26779e-15 -1.90833e-14 20 1.59028e-15 -1.90833e-14 -3.18055e-15 -1.59028e-15 3.18055e-15 20 -7.95139e-15 -2.54444e-14 24 -7.95139e-16 -2.54444e-14 20 1.11319e-14 6.36111e-15 -3.18055e-15 -1.59028e-15 3.18055e-15 19.9748 -1.02565 -2.81938 24 -6.16232e-15 -1.59028e-14 20 7.15625e-15 -2.22639e-14 -3.18055e-15 -1.59028e-15 3.18055e-15 19.7815 -3.00948 -8.30515 24 -1.63003e-14 -1.90833e-14 20 -9.54166e-15 -1.59028e-14 15.6244 -13.3453 -29.7103 -36.3308 33.8699 -68.2878 12.343 -54.6964 12.1167 -21.3994 -23.7294 6.40727 -28.184 10.7294 -19.1592 2.04994e-14 -6.36111e-15 10 -1.23577e-14 -3.18055e-15 10 6.36111e-15 1.27222e-14 3.18055e-15 -19.9818 0.871897 -2.3964 -24 1.59028e-15 6.36111e-15 -20 -7.44821e-15 3.18055e-15 6.36111e-15 1.27222e-14 3.18055e-15 -20 9.54166e-15 3.18055e-15 -24 0 6.36111e-15 -20 -8.94531e-16 1.27222e-14 6.36111e-15 1.27222e-14 3.18055e-15 -19.9748 -1.02565 2.81938 -24 -3.18055e-15 6.36111e-15 -20 -5.96354e-16 -6.36111e-15 6.36111e-15 1.27222e-14 3.18055e-15 -19.7815 -3.00948 8.30515 -24 -2.38542e-15 6.36111e-15 -20 1.19271e-15 -0 
0 0 0 0 0 -0 26.9823 13.7802 -70.3508 -6.50244 -49.8956 -5.82212 -1.91903 21.355 -12.7304 8.25962 0.559903 23.5321 16.3231 -41.7413 7.04898 3.24865 27.104 -6.34069 -11.1423 -13.7596 -15.478 -8.71664 13.0013 15.0353 -1.85991 3.47335 3.51148 -3.08946 5.59956 5.70058 -0.335932 -0.383991 -0.420642 -0.336322 -0.391485 -0.41844 -6.55085 -7.26738 -7.32773 1.079 -10.4011 24.8474 73.5865 -1.98179 49.6431 30.5282 -52.9737 21.4305 17.9521 -18.033 -16.7938 28.184 10.7294 19.1592 -2.99078e-14 -4.77083e-15 -10 -1.70594e-14 -5.1684e-15 -10 -1.59028e-14 -3.18055e-15 -3.18055e-15 19.9818 0.871897 2.3964 24 4.47266e-16 -4.13472e-14 20 0 -3.81667e-14 -1.59028e-14 -3.18055e-15 -3.18055e-15 20 -1.59028e-15 -2.54444e-14 24 -1.66979e-14 -2.8625e-14 20 -1.59028e-15 -2.54444e-14 -1.59028e-14 -3.18055e-15 -3.18055e-15 19.9748 -1.02565 -2.81938 24 -6.95746e-15 -2.54444e-14 20 3.18055e-15 -3.81667e-14 -1.59028e-14 -3.18055e-15 -3.18055e-15 19.7815 -3.00948 -8.30515 24 -5.1684e-15 -3.18055e-14 20 -5.56597e-15 -2.54444e-14 15.6047 -13.2815 -29.8802 -35.3831 34.2869 -69.2395 13.3623 -54.1723 13.0976 -21.2431 -23.8963 6.44664 -28.184 10.7294 -19.1592 1.02497e-14 -3.18055e-15 10 -2.5837e-14 0 10 9.54166e-15 6.36111e-15 1.59028e-15 -19.9818 0.871897 -2.3964 -24 4.77083e-15 -0 -20 -1.98785e-16 -3.18055e-15 9.54166e-15 6.36111e-15 1.59028e-15 -20 1.27222e-14 -9.54166e-15 -24 1.59028e-15 -0 -20 -1.31695e-15 9.54166e-15 9.54166e-15 6.36111e-15 1.59028e-15 -19.9748 -1.02565 2.81938 -24 -3.97569e-15 -0 -20 5.1684e-15 6.36111e-15 9.54166e-15 6.36111e-15 1.59028e-15 -19.7815 -3.00948 8.30515 -24 -4.77083e-15 3.18055e-15 -20 -1.59028e-15 3.18055e-15 
